<?xml version="1.0" encoding="UTF-8" ?>
<svg version="1.1" width="32" height="32" xmlns="http://www.w3.org/2000/svg" shape-rendering="crispEdges">
<rect x="4" y="0" width="2" height="2" fill="#5A5E85" />
<rect x="22" y="0" width="2" height="2" fill="#5A5E85" />
<rect x="2" y="2" width="2" height="2" fill="#5A5E85" />
<rect x="4" y="2" width="2" height="4" fill="#FAF0CA" />
<rect x="6" y="2" width="2" height="4" fill="#5A5E85" />
<rect x="20" y="2" width="2" height="4" fill="#5A5E85" />
<rect x="22" y="2" width="2" height="4" fill="#FAF0CA" />
<rect x="24" y="2" width="2" height="2" fill="#5A5E85" />
<rect x="0" y="4" width="2" height="6" fill="#5A5E85" />
<rect x="2" y="4" width="2" height="4" fill="#FAF0CA" />
<rect x="8" y="4" width="12" height="2" fill="#5A5E85" />
<rect x="24" y="4" width="2" height="4" fill="#FAF0CA" />
<rect x="26" y="4" width="2" height="6" fill="#5A5E85" />
<rect x="4" y="6" width="20" height="2" fill="#F3C0CE" />
<rect x="2" y="8" width="4" height="2" fill="#F3C0CE" />
<rect x="6" y="8" width="16" height="2" fill="#5A5E85" />
<rect x="22" y="8" width="4" height="2" fill="#F3C0CE" />
<rect x="2" y="10" width="2" height="2" fill="#5A5E85" />
<rect x="4" y="10" width="2" height="2" fill="#F3C0CE" />
<rect x="6" y="10" width="2" height="2" fill="#5A5E85" />
<rect x="20" y="10" width="2" height="2" fill="#5A5E85" />
<rect x="22" y="10" width="2" height="2" fill="#F3C0CE" />
<rect x="24" y="10" width="2" height="2" fill="#5A5E85" />
<rect x="4" y="12" width="2" height="2" fill="#5A5E85" />
<rect x="22" y="12" width="2" height="2" fill="#5A5E85" />
</svg>