<?xml version="1.0" encoding="UTF-8" ?>
<svg version="1.1" width="32" height="32" xmlns="http://www.w3.org/2000/svg" shape-rendering="crispEdges">
<rect x="2" y="0" width="2" height="2" fill="#694F62" />
<rect x="0" y="2" width="2" height="20" fill="#694F62" />
<rect x="2" y="2" width="2" height="10" fill="#FFFFFF" />
<rect x="4" y="2" width="2" height="20" fill="#694F62" />
<rect x="16" y="2" width="2" height="2" fill="#694F62" />
<rect x="14" y="4" width="2" height="2" fill="#694F62" />
<rect x="16" y="4" width="2" height="16" fill="#D3E0D8" />
<rect x="18" y="4" width="2" height="16" fill="#694F62" />
<rect x="12" y="6" width="2" height="2" fill="#694F62" />
<rect x="14" y="6" width="2" height="2" fill="#FFFFFF" />
<rect x="10" y="8" width="2" height="2" fill="#694F62" />
<rect x="12" y="8" width="2" height="4" fill="#FFFFFF" />
<rect x="14" y="8" width="2" height="10" fill="#D3E0D8" />
<rect x="8" y="10" width="2" height="4" fill="#694F62" />
<rect x="10" y="10" width="2" height="4" fill="#FFFFFF" />
<rect x="2" y="12" width="2" height="10" fill="#D3E0D8" />
<rect x="12" y="12" width="2" height="4" fill="#D3E0D8" />
<rect x="10" y="14" width="2" height="2" fill="#694F62" />
<rect x="12" y="16" width="2" height="2" fill="#694F62" />
<rect x="14" y="18" width="2" height="2" fill="#694F62" />
<rect x="16" y="20" width="2" height="2" fill="#694F62" />
<rect x="2" y="22" width="2" height="2" fill="#694F62" />
</svg>