<?xml version="1.0" encoding="UTF-8" ?>
<svg version="1.1" width="32" height="32" xmlns="http://www.w3.org/2000/svg" shape-rendering="crispEdges">
<rect x="2" y="0" width="20" height="2" fill="#5A5E85" />
<rect x="0" y="2" width="2" height="2" fill="#5A5E85" />
<rect x="2" y="2" width="10" height="2" fill="#FAF0CA" />
<rect x="12" y="2" width="10" height="2" fill="#F3C0CE" />
<rect x="22" y="2" width="2" height="2" fill="#5A5E85" />
<rect x="2" y="4" width="20" height="2" fill="#5A5E85" />
<rect x="10" y="8" width="4" height="2" fill="#5A5E85" />
<rect x="8" y="10" width="2" height="2" fill="#5A5E85" />
<rect x="10" y="10" width="4" height="2" fill="#FAF0CA" />
<rect x="14" y="10" width="2" height="2" fill="#5A5E85" />
<rect x="6" y="12" width="2" height="2" fill="#5A5E85" />
<rect x="8" y="12" width="4" height="2" fill="#FAF0CA" />
<rect x="12" y="12" width="4" height="6" fill="#F3C0CE" />
<rect x="16" y="12" width="2" height="2" fill="#5A5E85" />
<rect x="4" y="14" width="2" height="2" fill="#5A5E85" />
<rect x="6" y="14" width="2" height="2" fill="#FAF0CA" />
<rect x="8" y="14" width="4" height="4" fill="#F3C0CE" />
<rect x="16" y="14" width="2" height="4" fill="#F3C0CE" />
<rect x="18" y="14" width="2" height="2" fill="#5A5E85" />
<rect x="2" y="16" width="2" height="2" fill="#5A5E85" />
<rect x="4" y="16" width="4" height="2" fill="#F3C0CE" />
<rect x="18" y="16" width="2" height="2" fill="#F3C0CE" />
<rect x="20" y="16" width="2" height="2" fill="#5A5E85" />
<rect x="4" y="18" width="16" height="2" fill="#5A5E85" />
</svg>