<?xml version="1.0" encoding="UTF-8" ?>
<svg version="1.1" width="32" height="32" xmlns="http://www.w3.org/2000/svg" shape-rendering="crispEdges">
<rect x="5" y="0" width="10" height="2" fill="#694F62" />
<rect x="3" y="2" width="2" height="4" fill="#694F62" />
<rect x="5" y="2" width="8" height="2" fill="#FFFFFF" />
<rect x="13" y="2" width="2" height="4" fill="#D3E0D8" />
<rect x="15" y="2" width="2" height="4" fill="#694F62" />
<rect x="5" y="4" width="2" height="2" fill="#FFFFFF" />
<rect x="7" y="4" width="6" height="4" fill="#D3E0D8" />
<rect x="5" y="6" width="2" height="2" fill="#694F62" />
<rect x="13" y="6" width="2" height="2" fill="#694F62" />
<rect x="7" y="8" width="2" height="4" fill="#694F62" />
<rect x="9" y="8" width="2" height="10" fill="#D3E0D8" />
<rect x="11" y="8" width="2" height="4" fill="#694F62" />
<rect x="5" y="12" width="2" height="2" fill="#694F62" />
<rect x="7" y="12" width="2" height="2" fill="#FFFFFF" />
<rect x="11" y="12" width="2" height="6" fill="#D3E0D8" />
<rect x="13" y="12" width="2" height="2" fill="#694F62" />
<rect x="3" y="14" width="2" height="4" fill="#694F62" />
<rect x="5" y="14" width="2" height="2" fill="#FFFFFF" />
<rect x="7" y="14" width="2" height="4" fill="#D3E0D8" />
<rect x="13" y="14" width="2" height="4" fill="#D3E0D8" />
<rect x="15" y="14" width="2" height="4" fill="#694F62" />
<rect x="5" y="16" width="2" height="2" fill="#D3E0D8" />
<rect x="5" y="18" width="10" height="2" fill="#694F62" />
</svg>